<svg xmlns="http://www.w3.org/2000/svg" width="32" height="32" viewBox="0 0 32 32">
  <rect width="32" height="32" rx="6" fill="#3e4f32"/>
  <g fill="none" stroke="#d1d9c7" stroke-linecap="round">
    <!-- outer contour -->
    <path d="M6 20 Q8 8, 16 7 Q24 6, 26 16 Q27 22, 20 25 Q14 28, 8 24 Z" stroke-width="1.2" opacity="0.5"/>
    <!-- middle contour -->
    <path d="M10 19 Q11 12, 16 11 Q21 10, 22 16 Q23 20, 18 22 Q14 24, 11 21 Z" stroke-width="1.2" opacity="0.7"/>
    <!-- inner contour -->
    <path d="M13 18 Q13.5 14, 16 13.5 Q18.5 13, 19 16 Q19.5 18.5, 17 19.5 Q15 20.5, 13.5 19 Z" stroke-width="1.2" opacity="0.9"/>
    <!-- peak dot -->
  </g>
  <circle cx="16" cy="16" r="1.2" fill="#d1d9c7" opacity="0.9"/>
</svg>
